<svg width="24" height="24" viewBox="0 0 24 24" fill="none" xmlns="http://www.w3.org/2000/svg">
<path opacity="0.4" d="M17.9981 7.16C17.9381 7.15 17.8681 7.15 17.8081 7.16C16.4281 7.11 15.3281 5.98 15.3281 4.58C15.3281 3.15 16.4781 2 17.9081 2C19.3381 2 20.4881 3.16 20.4881 4.58C20.4781 5.98 19.3781 7.11 17.9981 7.16Z" stroke="#C6C8D3" strokeWidth="1.5" strokeLinecap="round" strokeLinejoin="round"/>
<path opacity="0.4" d="M16.9675 14.4402C18.3375 14.6702 19.8475 14.4302 20.9075 13.7202C22.3175 12.7802 22.3175 11.2402 20.9075 10.3002C19.8375 9.59016 18.3075 9.35016 16.9375 9.59016" stroke="#C6C8D3" strokeWidth="1.5" strokeLinecap="round" strokeLinejoin="round"/>
<path opacity="0.4" d="M5.96656 7.16C6.02656 7.15 6.09656 7.15 6.15656 7.16C7.53656 7.11 8.63656 5.98 8.63656 4.58C8.63656 3.15 7.48656 2 6.05656 2C4.62656 2 3.47656 3.16 3.47656 4.58C3.48656 5.98 4.58656 7.11 5.96656 7.16Z" stroke="#C6C8D3" strokeWidth="1.5" strokeLinecap="round" strokeLinejoin="round"/>
<path opacity="0.4" d="M6.9975 14.4402C5.6275 14.6702 4.1175 14.4302 3.0575 13.7202C1.6475 12.7802 1.6475 11.2402 3.0575 10.3002C4.1275 9.59016 5.6575 9.35016 7.0275 9.59016" stroke="#C6C8D3" strokeWidth="1.5" strokeLinecap="round" strokeLinejoin="round"/>
<path d="M12.0001 14.6297C11.9401 14.6197 11.8701 14.6197 11.8101 14.6297C10.4301 14.5797 9.33008 13.4497 9.33008 12.0497C9.33008 10.6197 10.4801 9.46973 11.9101 9.46973C13.3401 9.46973 14.4901 10.6297 14.4901 12.0497C14.4801 13.4497 13.3801 14.5897 12.0001 14.6297Z" stroke="#C6C8D3" strokeWidth="1.5" strokeLinecap="round" strokeLinejoin="round"/>
<path d="M9.0907 17.7794C7.6807 18.7194 7.6807 20.2594 9.0907 21.1994C10.6907 22.2694 13.3107 22.2694 14.9107 21.1994C16.3207 20.2594 16.3207 18.7194 14.9107 17.7794C13.3207 16.7194 10.6907 16.7194 9.0907 17.7794Z" stroke="#C6C8D3" strokeWidth="1.5" strokeLinecap="round" strokeLinejoin="round"/>
</svg>
