<svg width="96" height="27" viewBox="0 0 96 27" fill="none" xmlns="http://www.w3.org/2000/svg">
<rect y="0.364746" width="96" height="26" rx="6" fill="#FB8E0B" fill-opacity="0.1"/>
<path d="M14.8673 10.7714L15.7473 12.5314C15.8673 12.7714 16.1873 13.0114 16.454 13.0514L18.0473 13.3181C19.0673 13.4914 19.3073 14.2247 18.574 14.9581L17.334 16.1981C17.1273 16.4047 17.0073 16.8114 17.074 17.1047L17.4273 18.6447C17.7073 19.8581 17.0606 20.3314 15.9873 19.6981L14.494 18.8114C14.2206 18.6514 13.7806 18.6514 13.5073 18.8114L12.014 19.6981C10.9406 20.3314 10.294 19.8581 10.574 18.6447L10.9273 17.1047C10.994 16.8181 10.874 16.4114 10.6673 16.1981L9.4273 14.9581C8.69397 14.2247 8.93396 13.4847 9.95396 13.3181L11.5473 13.0514C11.814 13.0047 12.134 12.7714 12.254 12.5314L13.134 10.7714C13.6073 9.81806 14.394 9.81806 14.8673 10.7714Z" stroke="#FB8E0B" stroke-width="0.9375" stroke-linecap="round" stroke-linejoin="round"/>
<path opacity="0.4" d="M10 11.3647V6.698" stroke="#FB8E0B" stroke-width="0.9375" stroke-linecap="round" stroke-linejoin="round"/>
<path opacity="0.4" d="M18 11.3647V6.698" stroke="#FB8E0B" stroke-width="0.9375" stroke-linecap="round" stroke-linejoin="round"/>
<path opacity="0.4" d="M14 8.03133V6.698" stroke="#FB8E0B" stroke-width="0.9375" stroke-linecap="round" stroke-linejoin="round"/>
<path d="M30.68 16.3647V9.36475H33.49C34.2167 9.36475 34.77 9.53475 35.15 9.87475C35.5367 10.2081 35.73 10.6381 35.73 11.1647C35.73 11.6047 35.61 11.9581 35.37 12.2247C35.1367 12.4847 34.85 12.6614 34.51 12.7547C34.91 12.8347 35.24 13.0347 35.5 13.3547C35.76 13.6681 35.89 14.0347 35.89 14.4547C35.89 15.0081 35.69 15.4647 35.29 15.8247C34.89 16.1847 34.3233 16.3647 33.59 16.3647H30.68ZM31.96 12.3047H33.3C33.66 12.3047 33.9367 12.2214 34.13 12.0547C34.3233 11.8881 34.42 11.6514 34.42 11.3447C34.42 11.0514 34.3233 10.8214 34.13 10.6547C33.9433 10.4814 33.66 10.3947 33.28 10.3947H31.96V12.3047ZM31.96 15.3247H33.39C33.77 15.3247 34.0633 15.2381 34.27 15.0647C34.4833 14.8847 34.59 14.6347 34.59 14.3147C34.59 13.9881 34.48 13.7314 34.26 13.5447C34.04 13.3581 33.7433 13.2647 33.37 13.2647H31.96V15.3247ZM39.3686 16.4847C38.8686 16.4847 38.4253 16.3781 38.0386 16.1647C37.6519 15.9514 37.3486 15.6514 37.1286 15.2647C36.9086 14.8781 36.7986 14.4314 36.7986 13.9247C36.7986 13.4114 36.9053 12.9547 37.1186 12.5547C37.3386 12.1547 37.6386 11.8447 38.0186 11.6247C38.4053 11.3981 38.8586 11.2847 39.3786 11.2847C39.8653 11.2847 40.2953 11.3914 40.6686 11.6047C41.0419 11.8181 41.3319 12.1114 41.5386 12.4847C41.7519 12.8514 41.8586 13.2614 41.8586 13.7147C41.8586 13.7881 41.8553 13.8647 41.8486 13.9447C41.8486 14.0247 41.8453 14.1081 41.8386 14.1947H38.0686C38.0953 14.5814 38.2286 14.8847 38.4686 15.1047C38.7153 15.3247 39.0119 15.4347 39.3586 15.4347C39.6186 15.4347 39.8353 15.3781 40.0086 15.2647C40.1886 15.1447 40.3219 14.9914 40.4086 14.8047H41.7086C41.6153 15.1181 41.4586 15.4047 41.2386 15.6647C41.0253 15.9181 40.7586 16.1181 40.4386 16.2647C40.1253 16.4114 39.7686 16.4847 39.3686 16.4847ZM39.3786 12.3247C39.0653 12.3247 38.7886 12.4147 38.5486 12.5947C38.3086 12.7681 38.1553 13.0347 38.0886 13.3947H40.5586C40.5386 13.0681 40.4186 12.8081 40.1986 12.6147C39.9786 12.4214 39.7053 12.3247 39.3786 12.3247ZM44.9852 16.4847C44.5452 16.4847 44.1585 16.4147 43.8252 16.2747C43.4918 16.1281 43.2252 15.9281 43.0252 15.6747C42.8252 15.4214 42.7052 15.1281 42.6652 14.7947H43.9552C43.9952 14.9881 44.1018 15.1547 44.2752 15.2947C44.4552 15.4281 44.6852 15.4947 44.9652 15.4947C45.2452 15.4947 45.4485 15.4381 45.5752 15.3247C45.7085 15.2114 45.7752 15.0814 45.7752 14.9347C45.7752 14.7214 45.6818 14.5781 45.4952 14.5047C45.3085 14.4247 45.0485 14.3481 44.7152 14.2747C44.5018 14.2281 44.2852 14.1714 44.0652 14.1047C43.8452 14.0381 43.6418 13.9547 43.4552 13.8547C43.2752 13.7481 43.1285 13.6147 43.0152 13.4547C42.9018 13.2881 42.8452 13.0847 42.8452 12.8447C42.8452 12.4047 43.0185 12.0347 43.3652 11.7347C43.7185 11.4347 44.2118 11.2847 44.8452 11.2847C45.4318 11.2847 45.8985 11.4214 46.2452 11.6947C46.5985 11.9681 46.8085 12.3447 46.8752 12.8247H45.6652C45.5918 12.4581 45.3152 12.2747 44.8352 12.2747C44.5952 12.2747 44.4085 12.3214 44.2752 12.4147C44.1485 12.5081 44.0852 12.6247 44.0852 12.7647C44.0852 12.9114 44.1818 13.0281 44.3752 13.1147C44.5685 13.2014 44.8252 13.2814 45.1452 13.3547C45.4918 13.4347 45.8085 13.5247 46.0952 13.6247C46.3885 13.7181 46.6218 13.8614 46.7952 14.0547C46.9685 14.2414 47.0552 14.5114 47.0552 14.8647C47.0618 15.1714 46.9818 15.4481 46.8152 15.6947C46.6485 15.9414 46.4085 16.1347 46.0952 16.2747C45.7818 16.4147 45.4118 16.4847 44.9852 16.4847ZM50.2428 16.3647C49.7228 16.3647 49.3061 16.2381 48.9928 15.9847C48.6795 15.7314 48.5228 15.2814 48.5228 14.6347V12.4747H47.6728V11.4047H48.5228L48.6728 10.0747H49.8028V11.4047H51.1428V12.4747H49.8028V14.6447C49.8028 14.8847 49.8528 15.0514 49.9528 15.1447C50.0595 15.2314 50.2395 15.2747 50.4928 15.2747H51.1128V16.3647H50.2428ZM54.2046 16.3647L56.7646 9.36475H58.2046L60.7646 16.3647H59.4046L58.8446 14.7447H56.1146L55.5446 16.3647H54.2046ZM56.4646 13.7447H58.4946L57.4746 10.8347L56.4646 13.7447ZM61.6363 16.3647V11.4047H62.7663L62.8663 12.2447C63.0197 11.9514 63.2397 11.7181 63.5263 11.5447C63.8197 11.3714 64.163 11.2847 64.5563 11.2847C65.1697 11.2847 65.6463 11.4781 65.9863 11.8647C66.3263 12.2514 66.4963 12.8181 66.4963 13.5647V16.3647H65.2163V13.6847C65.2163 13.2581 65.1297 12.9314 64.9563 12.7047C64.783 12.4781 64.513 12.3647 64.1463 12.3647C63.7863 12.3647 63.4897 12.4914 63.2563 12.7447C63.0297 12.9981 62.9163 13.3514 62.9163 13.8047V16.3647H61.6363ZM69.7703 16.4847C69.3303 16.4847 68.9436 16.4147 68.6103 16.2747C68.277 16.1281 68.0103 15.9281 67.8103 15.6747C67.6103 15.4214 67.4903 15.1281 67.4503 14.7947H68.7403C68.7803 14.9881 68.887 15.1547 69.0603 15.2947C69.2403 15.4281 69.4703 15.4947 69.7503 15.4947C70.0303 15.4947 70.2336 15.4381 70.3603 15.3247C70.4936 15.2114 70.5603 15.0814 70.5603 14.9347C70.5603 14.7214 70.467 14.5781 70.2803 14.5047C70.0936 14.4247 69.8336 14.3481 69.5003 14.2747C69.287 14.2281 69.0703 14.1714 68.8503 14.1047C68.6303 14.0381 68.427 13.9547 68.2403 13.8547C68.0603 13.7481 67.9136 13.6147 67.8003 13.4547C67.687 13.2881 67.6303 13.0847 67.6303 12.8447C67.6303 12.4047 67.8036 12.0347 68.1503 11.7347C68.5036 11.4347 68.997 11.2847 69.6303 11.2847C70.217 11.2847 70.6836 11.4214 71.0303 11.6947C71.3836 11.9681 71.5936 12.3447 71.6603 12.8247H70.4503C70.377 12.4581 70.1003 12.2747 69.6203 12.2747C69.3803 12.2747 69.1936 12.3214 69.0603 12.4147C68.9336 12.5081 68.8703 12.6247 68.8703 12.7647C68.8703 12.9114 68.967 13.0281 69.1603 13.1147C69.3536 13.2014 69.6103 13.2814 69.9303 13.3547C70.277 13.4347 70.5936 13.5247 70.8803 13.6247C71.1736 13.7181 71.407 13.8614 71.5803 14.0547C71.7536 14.2414 71.8403 14.5114 71.8403 14.8647C71.847 15.1714 71.767 15.4481 71.6003 15.6947C71.4336 15.9414 71.1936 16.1347 70.8803 16.2747C70.567 16.4147 70.197 16.4847 69.7703 16.4847ZM73.7977 16.3647L72.3477 11.4047H73.6177L74.4777 14.9747L75.4777 11.4047H76.8977L77.8977 14.9747L78.7677 11.4047H80.0377L78.5777 16.3647H77.2477L76.1877 12.6547L75.1277 16.3647H73.7977ZM83.0795 16.4847C82.5795 16.4847 82.1362 16.3781 81.7495 16.1647C81.3629 15.9514 81.0595 15.6514 80.8395 15.2647C80.6195 14.8781 80.5095 14.4314 80.5095 13.9247C80.5095 13.4114 80.6162 12.9547 80.8295 12.5547C81.0495 12.1547 81.3495 11.8447 81.7295 11.6247C82.1162 11.3981 82.5695 11.2847 83.0895 11.2847C83.5762 11.2847 84.0062 11.3914 84.3795 11.6047C84.7529 11.8181 85.0429 12.1114 85.2495 12.4847C85.4629 12.8514 85.5695 13.2614 85.5695 13.7147C85.5695 13.7881 85.5662 13.8647 85.5595 13.9447C85.5595 14.0247 85.5562 14.1081 85.5495 14.1947H81.7795C81.8062 14.5814 81.9395 14.8847 82.1795 15.1047C82.4262 15.3247 82.7229 15.4347 83.0695 15.4347C83.3295 15.4347 83.5462 15.3781 83.7195 15.2647C83.8995 15.1447 84.0329 14.9914 84.1195 14.8047H85.4195C85.3262 15.1181 85.1695 15.4047 84.9495 15.6647C84.7362 15.9181 84.4695 16.1181 84.1495 16.2647C83.8362 16.4114 83.4795 16.4847 83.0795 16.4847ZM83.0895 12.3247C82.7762 12.3247 82.4995 12.4147 82.2595 12.5947C82.0195 12.7681 81.8662 13.0347 81.7995 13.3947H84.2695C84.2495 13.0681 84.1295 12.8081 83.9095 12.6147C83.6895 12.4214 83.4162 12.3247 83.0895 12.3247ZM86.6461 16.3647V11.4047H87.7861L87.9061 12.3347C88.0861 12.0147 88.3294 11.7614 88.6361 11.5747C88.9494 11.3814 89.3161 11.2847 89.7361 11.2847V12.6347H89.3761C89.0961 12.6347 88.8461 12.6781 88.6261 12.7647C88.4061 12.8514 88.2328 13.0014 88.1061 13.2147C87.9861 13.4281 87.9261 13.7247 87.9261 14.1047V16.3647H86.6461Z" fill="#FB8E0B"/>
</svg>
