<svg width="44" height="44" viewBox="0 0 44 44" fill="none" xmlns="http://www.w3.org/2000/svg">
<rect width="44" height="44" rx="22" fill="white" fill-opacity="0.7"/>
<path d="M16.7602 32H27.2402C30.0002 32 31.1002 30.31 31.2302 28.25L31.7502 19.99C31.8902 17.83 30.1702 16 28.0002 16C27.3902 16 26.8302 15.65 26.5502 15.11L25.8302 13.66C25.3702 12.75 24.1702 12 23.1502 12H20.8602C19.8302 12 18.6302 12.75 18.1702 13.66L17.4502 15.11C17.1702 15.65 16.6102 16 16.0002 16C13.8302 16 12.1102 17.83 12.2502 19.99L12.7702 28.25C12.8902 30.31 14.0002 32 16.7602 32Z" stroke="#292D32" stroke-width="1.5" stroke-linecap="round" stroke-linejoin="round"/>
<path opacity="0.4" d="M20.5 18H23.5" stroke="#292D32" stroke-width="1.5" stroke-linecap="round" stroke-linejoin="round"/>
<path opacity="0.4" d="M22 28C23.79 28 25.25 26.54 25.25 24.75C25.25 22.96 23.79 21.5 22 21.5C20.21 21.5 18.75 22.96 18.75 24.75C18.75 26.54 20.21 28 22 28Z" stroke="#292D32" stroke-width="1.5" stroke-linecap="round" stroke-linejoin="round"/>
</svg>
