<svg width="14" height="15" viewBox="0 0 14 15" fill="none" xmlns="http://www.w3.org/2000/svg">
<path d="M4.95768 11.3263H4.66602C2.33268 11.3263 1.16602 10.743 1.16602 7.82634V4.90967C1.16602 2.57633 2.33268 1.40967 4.66602 1.40967H9.33268C11.666 1.40967 12.8327 2.57633 12.8327 4.90967V7.82634C12.8327 10.1597 11.666 11.3263 9.33268 11.3263H9.04102C8.86018 11.3263 8.68518 11.4138 8.57435 11.5597L7.69935 12.7263C7.31435 13.2397 6.68435 13.2397 6.29935 12.7263L5.42435 11.5597C5.33102 11.4313 5.11518 11.3263 4.95768 11.3263Z" stroke="#C6C8D3" stroke-width="1.05" stroke-miterlimit="10" stroke-linecap="round" stroke-linejoin="round"/>
<path opacity="0.4" d="M9.33143 6.65983H9.33667" stroke="#C6C8D3" stroke-width="1.4" stroke-linecap="round" stroke-linejoin="round"/>
<path opacity="0.4" d="M6.99745 6.65983H7.00269" stroke="#C6C8D3" stroke-width="1.4" stroke-linecap="round" stroke-linejoin="round"/>
<path opacity="0.4" d="M4.66346 6.65983H4.6687" stroke="#C6C8D3" stroke-width="1.4" stroke-linecap="round" stroke-linejoin="round"/>
</svg>
