<svg width="24" height="25" viewBox="0 0 24 25" fill="none" xmlns="http://www.w3.org/2000/svg">
<path opacity="0.4" d="M16.5197 5.77197L13.4197 3.37197C13.0197 2.97197 12.1197 2.77197 11.5197 2.77197H7.71973C6.51973 2.77197 5.21973 3.67197 4.91973 4.87197L2.51973 12.172C2.01973 13.572 2.91973 14.772 4.41973 14.772H8.41973C9.01973 14.772 9.51973 15.272 9.41973 15.972L8.91973 19.172C8.71973 20.072 9.31973 21.072 10.2197 21.372C11.0197 21.672 12.0197 21.272 12.4197 20.672L16.5197 14.572" stroke="#8E8EA9" stroke-width="1.5" stroke-miterlimit="10"/>
<path d="M21.6191 5.77207V15.5721C21.6191 16.9721 21.0191 17.4721 19.6191 17.4721H18.6191C17.2191 17.4721 16.6191 16.9721 16.6191 15.5721V5.77207C16.6191 4.37207 17.2191 3.87207 18.6191 3.87207H19.6191C21.0191 3.87207 21.6191 4.37207 21.6191 5.77207Z" stroke="#8E8EA9" stroke-width="1.5" stroke-linecap="round" stroke-linejoin="round"/>
</svg>
