<svg width="24" height="25" viewBox="0 0 24 25" fill="none" xmlns="http://www.w3.org/2000/svg">
<path opacity="0.4" d="M7.48047 18.4716L10.5805 20.8715C10.9805 21.2715 11.8805 21.4715 12.4805 21.4715H16.2805C17.4805 21.4715 18.7805 20.5715 19.0805 19.3715L21.4805 12.0716C21.9805 10.6716 21.0805 9.47155 19.5805 9.47155H15.5805C14.9805 9.47155 14.4805 8.97155 14.5805 8.27155L15.0805 5.07155C15.2805 4.17155 14.6805 3.17155 13.7805 2.87155C12.9805 2.57155 11.9805 2.97155 11.5805 3.57155L7.48047 9.67155" stroke="#ED4546" stroke-width="1.5" stroke-miterlimit="10"/>
<path d="M2.38086 18.4715V8.67148C2.38086 7.27148 2.98086 6.77148 4.38086 6.77148H5.38086C6.78086 6.77148 7.38086 7.27148 7.38086 8.67148V18.4715C7.38086 19.8715 6.78086 20.3715 5.38086 20.3715H4.38086C2.98086 20.3715 2.38086 19.8715 2.38086 18.4715Z" stroke="#ED4546" stroke-width="1.5" stroke-linecap="round" stroke-linejoin="round"/>
</svg>
