<svg width="154" height="31" viewBox="0 0 154 31" fill="none" xmlns="http://www.w3.org/2000/svg">
<circle cx="15.5" cy="15.5" r="15.5" fill="#725CFF"/>
<path d="M15.3122 23.701C10.8838 23.4968 7.45944 19.7412 7.66371 15.3128C7.86799 10.8844 11.6235 7.46004 16.0519 7.66431L23.8797 8.20801L23.7004 16.0525C23.4962 20.481 19.7406 23.9053 15.3122 23.701Z" fill="white"/>
<path d="M15.7104 19.5334C13.6975 19.4406 12.141 17.7335 12.2339 15.7206C12.3267 13.7077 14.0338 12.1511 16.0467 12.244L19.6048 12.4911L19.5233 16.0568C19.4304 18.0697 17.7234 19.6263 15.7104 19.5334Z" fill="#725CFF"/>
<path d="M47.2037 22.2425C46.1664 22.2425 45.2503 22.0674 44.4555 21.7171C43.6606 21.3534 43.0342 20.8414 42.5762 20.1813C42.1181 19.5078 41.8824 18.6927 41.8689 17.7362H44.5969C44.6239 18.3963 44.8596 18.9554 45.3042 19.4135C45.7622 19.858 46.3886 20.0803 47.1835 20.0803C47.8705 20.0803 48.4161 19.9186 48.8203 19.5953C49.2244 19.2585 49.4265 18.814 49.4265 18.2616C49.4265 17.6824 49.2446 17.2311 48.8809 16.9077C48.5306 16.5844 48.0591 16.3217 47.4664 16.1196C46.8736 15.9176 46.2405 15.702 45.5669 15.473C44.4757 15.0958 43.6404 14.6108 43.0612 14.0181C42.4953 13.4253 42.2124 12.6372 42.2124 11.6538C42.199 10.8186 42.3943 10.1046 42.7985 9.51182C43.2161 8.9056 43.7819 8.44083 44.4959 8.11751C45.2099 7.78072 46.0316 7.61232 46.9612 7.61232C47.9042 7.61232 48.7327 7.78072 49.4467 8.11751C50.1742 8.4543 50.74 8.92581 51.1441 9.53203C51.5617 10.1383 51.784 10.859 51.811 11.6942H49.0425C49.0291 11.1958 48.8337 10.7579 48.4565 10.3807C48.0928 9.99006 47.5809 9.79472 46.9208 9.79472C46.355 9.78125 45.8767 9.9227 45.486 10.2191C45.1088 10.502 44.9202 10.9196 44.9202 11.4719C44.9202 11.9434 45.0684 12.3207 45.3648 12.6036C45.6612 12.873 46.0653 13.102 46.5772 13.2906C47.0892 13.4792 47.6752 13.6813 48.3353 13.8968C49.0358 14.1393 49.6757 14.4222 50.255 14.7455C50.8343 15.0689 51.299 15.4999 51.6493 16.0388C51.9996 16.5642 52.1747 17.2445 52.1747 18.0798C52.1747 18.8207 51.9861 19.5078 51.6089 20.1409C51.2317 20.7741 50.6726 21.286 49.9317 21.6767C49.1907 22.0539 48.2814 22.2425 47.2037 22.2425ZM58.8367 22C57.7859 22 56.9439 21.744 56.3107 21.2321C55.6776 20.7202 55.361 19.8109 55.361 18.5041V14.1393H53.6434V11.9771H55.361L55.6641 9.28954H57.9475V11.9771H60.6553V14.1393H57.9475V18.5243C57.9475 19.0093 58.0486 19.3461 58.2507 19.5347C58.4662 19.7098 58.8299 19.7974 59.3419 19.7974H60.5947V22H58.8367ZM66.6347 22.2425C65.3818 22.2425 64.4119 21.8518 63.7248 21.0705C63.0512 20.2891 62.7144 19.144 62.7144 17.6352V11.9771H65.2808V17.3927C65.2808 18.2549 65.4559 18.915 65.8062 19.373C66.1564 19.8311 66.7088 20.0601 67.4632 20.0601C68.1772 20.0601 68.7632 19.8041 69.2212 19.2922C69.6927 18.7803 69.9285 18.0663 69.9285 17.1502V11.9771H72.515V22H70.2316L70.0295 20.3026C69.7197 20.8953 69.2684 21.3668 68.6756 21.7171C68.0963 22.0674 67.416 22.2425 66.6347 22.2425ZM80.0807 22.2425C79.0568 22.2425 78.1542 22.0202 77.3729 21.5756C76.5915 21.1311 75.9718 20.5114 75.5138 19.7166C75.0692 18.9217 74.8469 18.0124 74.8469 16.9886C74.8469 15.9647 75.0692 15.0554 75.5138 14.2606C75.9718 13.4657 76.5915 12.846 77.3729 12.4015C78.1542 11.9569 79.0568 11.7346 80.0807 11.7346C81.3605 11.7346 82.4382 12.0714 83.3138 12.745C84.1895 13.4051 84.7486 14.3212 84.9911 15.4932H82.2631C82.1283 15.0082 81.8589 14.631 81.4548 14.3616C81.0641 14.0787 80.5993 13.9372 80.0604 13.9372C79.3465 13.9372 78.7402 14.2067 78.2418 14.7455C77.7433 15.2844 77.4941 16.0321 77.4941 16.9886C77.4941 17.945 77.7433 18.6927 78.2418 19.2316C78.7402 19.7704 79.3465 20.0399 80.0604 20.0399C80.5993 20.0399 81.0641 19.9052 81.4548 19.6357C81.8589 19.3663 82.1283 18.9824 82.2631 18.4839H84.9911C84.7486 19.6155 84.1895 20.5249 83.3138 21.2119C82.4382 21.899 81.3605 22.2425 80.0807 22.2425ZM90.7423 22.2425C89.8801 22.2425 89.1728 22.1078 88.6205 21.8383C88.0682 21.5554 87.6573 21.185 87.3878 20.7269C87.1184 20.2689 86.9837 19.7637 86.9837 19.2114C86.9837 18.2818 87.3474 17.5274 88.0749 16.9481C88.8024 16.3689 89.8936 16.0792 91.3485 16.0792H93.8946V15.8367C93.8946 15.1497 93.6993 14.6445 93.3086 14.3212C92.9179 13.9979 92.433 13.8362 91.8537 13.8362C91.3283 13.8362 90.8703 13.9642 90.4796 14.2201C90.0889 14.4626 89.8464 14.8264 89.7521 15.3113H87.2262C87.2935 14.5839 87.536 13.9507 87.9536 13.4119C88.3847 12.873 88.9371 12.4621 89.6107 12.1792C90.2842 11.8828 91.0386 11.7346 91.8739 11.7346C93.3019 11.7346 94.4268 12.0916 95.2485 12.8056C96.0703 13.5196 96.4812 14.53 96.4812 15.8367V22H94.2786L94.0361 20.3834C93.7397 20.9223 93.3221 21.3668 92.7832 21.7171C92.2578 22.0674 91.5775 22.2425 90.7423 22.2425ZM91.3283 20.2217C92.0692 20.2217 92.6418 19.9793 93.0459 19.4943C93.4635 19.0093 93.7262 18.4098 93.834 17.6958H91.6314C90.9443 17.6958 90.4526 17.8238 90.1563 18.0798C89.8599 18.3223 89.7117 18.6254 89.7117 18.9891C89.7117 19.3798 89.8599 19.6829 90.1563 19.8984C90.4526 20.114 90.8433 20.2217 91.3283 20.2217ZM103.557 22.2425C102.614 22.2425 101.772 22.0135 101.031 21.5554C100.29 21.0974 99.7039 20.471 99.2728 19.6761C98.8417 18.8813 98.6262 17.9787 98.6262 16.9684C98.6262 15.958 98.8417 15.0621 99.2728 14.2808C99.7039 13.4859 100.29 12.8663 101.031 12.4217C101.772 11.9637 102.614 11.7346 103.557 11.7346C104.311 11.7346 104.971 11.8761 105.537 12.159C106.103 12.4419 106.561 12.8393 106.911 13.3512V7.45067H109.498V22H107.194L106.911 20.5653C106.588 21.0098 106.157 21.4005 105.618 21.7373C105.093 22.0741 104.405 22.2425 103.557 22.2425ZM104.102 19.9793C104.938 19.9793 105.618 19.7031 106.143 19.1508C106.682 18.5849 106.952 17.8642 106.952 16.9886C106.952 16.1129 106.682 15.3989 106.143 14.8466C105.618 14.2808 104.938 13.9979 104.102 13.9979C103.281 13.9979 102.6 14.274 102.061 14.8264C101.523 15.3787 101.253 16.0927 101.253 16.9684C101.253 17.844 101.523 18.5647 102.061 19.1305C102.6 19.6964 103.281 19.9793 104.102 19.9793ZM117.002 22.2425C115.991 22.2425 115.095 22.0269 114.314 21.5959C113.533 21.1648 112.92 20.5585 112.475 19.7772C112.031 18.9958 111.808 18.0932 111.808 17.0694C111.808 16.0321 112.024 15.1093 112.455 14.301C112.9 13.4927 113.506 12.8663 114.274 12.4217C115.055 11.9637 115.971 11.7346 117.022 11.7346C118.005 11.7346 118.874 11.9502 119.629 12.3813C120.383 12.8124 120.969 13.4051 121.387 14.1595C121.818 14.9005 122.033 15.729 122.033 16.645C122.033 16.7932 122.027 16.9481 122.013 17.1098C122.013 17.2715 122.006 17.4399 121.993 17.615H114.375C114.429 18.3963 114.698 19.0093 115.183 19.4539C115.681 19.8984 116.281 20.1207 116.981 20.1207C117.507 20.1207 117.945 20.0062 118.295 19.7772C118.659 19.5347 118.928 19.2248 119.103 18.8476H121.73C121.542 19.4808 121.225 20.0601 120.78 20.5855C120.349 21.0974 119.81 21.5016 119.164 21.7979C118.531 22.0943 117.81 22.2425 117.002 22.2425ZM117.022 13.8362C116.389 13.8362 115.83 14.0181 115.345 14.3818C114.86 14.7321 114.55 15.2709 114.415 15.9984H119.406C119.366 15.3383 119.123 14.8129 118.679 14.4222C118.234 14.0315 117.682 13.8362 117.022 13.8362ZM124.209 22V11.9771H126.492L126.714 13.331C127.038 12.846 127.462 12.4621 127.988 12.1792C128.526 11.8828 129.146 11.7346 129.847 11.7346C131.396 11.7346 132.494 12.3341 133.14 13.5331C133.504 12.9808 133.989 12.5429 134.595 12.2196C135.215 11.8963 135.889 11.7346 136.616 11.7346C137.923 11.7346 138.926 12.1253 139.627 12.9067C140.328 13.688 140.678 14.8331 140.678 16.3419V22H138.091V16.5844C138.091 15.7222 137.923 15.0621 137.586 14.6041C137.263 14.1461 136.758 13.917 136.07 13.917C135.37 13.917 134.804 14.173 134.373 14.6849C133.955 15.1968 133.747 15.9108 133.747 16.8269V22H131.16V16.5844C131.16 15.7222 130.992 15.0621 130.655 14.6041C130.318 14.1461 129.799 13.917 129.099 13.917C128.412 13.917 127.853 14.173 127.422 14.6849C127.004 15.1968 126.795 15.9108 126.795 16.8269V22H124.209ZM144.051 26.4456L146.375 21.3332H145.768L141.868 11.9771H144.677L147.486 19.0295L150.416 11.9771H153.164L146.799 26.4456H144.051Z" fill="#081131"/>
</svg>
