<svg width="14" height="15" viewBox="0 0 14 15" fill="none" xmlns="http://www.w3.org/2000/svg">
<path opacity="0.4" d="M7.1157 7.12638L6.29318 7.94888C5.83818 8.40388 5.83818 9.14473 6.29318 9.59973C6.74818 10.0547 7.48903 10.0547 7.94403 9.59973L9.23905 8.30473C10.149 7.39473 10.149 5.91889 9.23905 5.00306C8.32905 4.09306 6.85319 4.09306 5.93736 5.00306L4.5257 6.41471C3.74404 7.19638 3.74404 8.46222 4.5257 9.24388" stroke="#C6C8D3" stroke-width="1.5" stroke-linecap="round" stroke-linejoin="round"/>
<path d="M5.24935 13.0766H8.74935C11.666 13.0766 12.8327 11.9099 12.8327 8.99325V5.49325C12.8327 2.57658 11.666 1.40991 8.74935 1.40991H5.24935C2.33268 1.40991 1.16602 2.57658 1.16602 5.49325V8.99325C1.16602 11.9099 2.33268 13.0766 5.24935 13.0766Z" stroke="#C6C8D3" stroke-width="1.5" stroke-linecap="round" stroke-linejoin="round"/>
</svg>
