<svg width="97" height="96" viewBox="0 0 97 96" fill="none" xmlns="http://www.w3.org/2000/svg">
<rect opacity="0.1" x="3.26078" y="3.26078" width="90.4764" height="89.5939" rx="18.7392" fill="#FFA873" stroke="white" stroke-width="5.47844"/>
<path d="M64.9582 45.2953L63.2409 52.6204C61.7689 58.9466 58.8599 61.5051 53.3924 60.9794C52.5162 60.9093 51.5699 60.7516 50.5535 60.5062L47.6094 59.8053C40.3019 58.0704 38.0413 54.4604 39.7586 47.1354L41.476 39.7928C41.8265 38.3032 42.2471 37.0065 42.7728 35.9375C44.8231 31.6967 48.3104 30.5576 54.1634 31.942L57.0899 32.6254C64.4325 34.3428 66.6756 37.9703 64.9582 45.2953Z" stroke="#FB8E0B" stroke-width="2.62861" stroke-linecap="round" stroke-linejoin="round"/>
<path opacity="0.4" d="M53.3914 60.9794C52.305 61.7154 50.9381 62.3287 49.2733 62.872L46.5045 63.7832C39.5474 66.0263 35.8849 64.1512 33.6243 57.1942L31.3812 50.2722C29.1381 43.3151 30.9957 39.6351 37.9527 37.392L40.7216 36.4807C41.44 36.2529 42.1235 36.0602 42.7719 35.9375C42.2461 37.0065 41.8256 38.3032 41.4751 39.7928L39.7577 47.1354C38.0404 54.4604 40.301 58.0704 47.6085 59.8053L50.5525 60.5062C51.5689 60.7516 52.5152 60.9093 53.3914 60.9794Z" stroke="#FB8E0B" stroke-width="2.62861" stroke-linecap="round" stroke-linejoin="round"/>
</svg>
