<svg width="18" height="18" viewBox="0 0 18 18" fill="none" xmlns="http://www.w3.org/2000/svg">
<path fill-rule="evenodd" clip-rule="evenodd" d="M14.3572 13.1983C15.4185 11.9017 16.0531 10.2571 16.0531 8.46762C16.0531 4.28188 12.581 0.888672 8.29804 0.888672C4.01503 0.888672 0.542969 4.28188 0.542969 8.46762C0.542969 12.6534 4.01503 16.0466 8.29804 16.0466C10.1291 16.0466 11.812 15.4264 13.1386 14.3892L15.4438 16.642C15.7803 16.9709 16.3259 16.9709 16.6624 16.642C16.9989 16.3132 16.9989 15.78 16.6624 15.4511L14.3572 13.1983ZM14.3298 8.46762C14.3298 11.7232 11.6293 14.3624 8.29804 14.3624C4.96681 14.3624 2.26632 11.7232 2.26632 8.46762C2.26632 5.21205 4.96681 2.57288 8.29804 2.57288C11.6293 2.57288 14.3298 5.21205 14.3298 8.46762Z" fill="#9DA6BA" stroke="white" strokeLinecap="round"/>
</svg>
