<svg width="140" height="96" viewBox="0 0 140 96" fill="none" xmlns="http://www.w3.org/2000/svg">
<path d="M121.026 47.9817C121.026 65.3935 111.52 80.6424 97.2797 89.0419C96.6879 89.4024 96.0961 89.7268 95.5043 90.0512L100.941 50.6854C101.052 49.8923 100.461 49.1713 99.6839 49.0632C98.8702 48.955 98.1304 49.4957 98.0195 50.2888L92.3234 91.6014C90.8809 92.2503 89.4014 92.827 87.9219 93.3317L91.9905 50.6133C92.0645 49.8202 91.4727 49.1353 90.659 49.0632C89.8453 48.9911 89.1055 49.5678 89.0685 50.3609L84.852 94.269C83.4465 94.6295 81.967 94.954 80.5245 95.2063L82.7807 50.5412C82.8177 49.7481 82.1889 49.0632 81.3752 49.0271C80.5615 48.9911 79.8587 49.6039 79.8217 50.397L77.5285 95.6389C76.123 95.7831 74.7544 95.8912 73.3119 95.9273V50.5051C73.3119 49.712 72.6462 49.0632 71.8324 49.0632C71.0187 49.0632 70.3529 49.712 70.3529 50.5051V95.9633C69.0584 95.9273 67.8008 95.8552 66.5433 95.711L64.25 50.433C64.2131 49.6399 63.5103 49.0271 62.6966 49.0632C61.8828 49.0992 61.2541 49.7841 61.291 50.5772L63.5473 95.3145C62.0678 95.0621 60.6253 94.7737 59.2198 94.4132L54.9662 50.3609C54.8922 49.5678 54.1895 48.9911 53.3758 49.0632C52.562 49.1353 51.9702 49.8562 52.0442 50.6133L56.1498 93.512C54.6333 93.0073 53.1908 92.4666 51.7483 91.8537L46.0153 50.3249C45.9043 49.5318 45.1646 48.9911 44.3508 49.0992C43.5371 49.2073 42.9823 49.9283 43.0933 50.7214L48.5304 90.3396C47.8277 89.9792 47.1619 89.6187 46.4961 89.2221C32.145 80.8226 22.5283 65.5016 22.5283 47.9817C22.5283 21.4854 44.5728 0 71.7585 0C98.9811 0 121.026 21.4854 121.026 47.9817Z" fill="#EAEEF9"/>
<path fill-rule="evenodd" clip-rule="evenodd" d="M60.2903 12.8867L63.3267 17.4556L62.0774 18.2859L59.041 13.717L60.2903 12.8867Z" fill="#A2ABBE"/>
<path fill-rule="evenodd" clip-rule="evenodd" d="M71.9061 4.03326L71.5493 15.6068L70.0498 15.5608L70.4065 3.98726L71.9061 4.03326Z" fill="#A2ABBE"/>
<path fill-rule="evenodd" clip-rule="evenodd" d="M83.5889 7.77853L78.7419 18.295L77.3793 17.6673L82.2263 7.15077L83.5889 7.77853Z" fill="#A2ABBE"/>
<path fill-rule="evenodd" clip-rule="evenodd" d="M20.2467 6.2327C20.7238 6.38108 21.1993 6.53517 21.6729 6.69488L21.1343 8.21188C20.6733 8.05641 20.2105 7.90643 19.746 7.762L20.2467 6.2327ZM24.4887 7.71955C25.4183 8.08303 26.3392 8.46853 27.2503 8.87556L26.564 10.3348C25.677 9.93855 24.7804 9.56326 23.8754 9.20939L24.4887 7.71955ZM29.9515 10.1602C30.8411 10.6096 31.7196 11.0801 32.5858 11.5711L31.7577 12.9587C30.9147 12.4808 30.0596 12.0229 29.1936 11.5854L29.9515 10.1602ZM35.1466 13.1058C35.9874 13.6378 36.8146 14.19 37.6271 14.7619L36.6628 16.0632C35.8726 15.507 35.0678 14.9698 34.2497 14.4522L35.1466 13.1058ZM40.02 16.537C40.8025 17.1485 41.5689 17.7792 42.318 18.4287L41.2233 19.6281C40.4953 18.9969 39.7504 18.3839 38.9897 17.7894L40.02 16.537ZM33.3105 33.1077C33.2838 32.4996 33.3747 31.901 33.5578 31.3368L35.1281 31.8209C35.0012 32.2118 34.9406 32.6149 34.9551 33.0142C35.0007 33.4087 35.1177 33.7921 35.2953 34.155L33.8087 34.8461C33.5527 34.3229 33.3788 33.755 33.3143 33.1573L33.3116 33.1326L33.3105 33.1077ZM37.2155 27.685C36.6332 27.8648 36.093 28.1468 35.6132 28.5012L36.6081 29.7805C36.9543 29.5248 37.3334 29.3304 37.7282 29.2106L37.7512 29.2037L37.7737 29.1954C38.2013 29.0384 38.6362 28.9441 39.0721 28.9046L38.9196 27.3063C38.3499 27.3579 37.7783 27.4807 37.2155 27.685ZM44.5132 20.4341C44.8701 20.7776 45.2223 21.1258 45.5697 21.4785L45.58 21.4888L45.5898 21.4996C45.6705 21.5876 45.7525 21.6767 45.8353 21.7668C46.0979 22.0521 46.3691 22.347 46.635 22.6457L45.3908 23.6975C45.1347 23.4098 44.876 23.1286 44.6155 22.8454C44.5343 22.7572 44.453 22.6688 44.3715 22.5799C44.0375 22.2411 43.6989 21.9064 43.3558 21.5762L44.5132 20.4341ZM37.7134 38.0625C37.1605 37.903 36.6289 37.6648 36.1388 37.3634L37.0177 36.0058C37.3909 36.2353 37.7906 36.4124 38.1978 36.5281L38.2213 36.5347L38.2443 36.5427C38.9087 36.7738 39.5984 36.9057 40.2902 36.9436L40.1976 38.5463C39.3615 38.5004 38.524 38.342 37.7134 38.0625ZM42.345 27.8059C42.8811 28.0093 43.3935 28.2646 43.8727 28.56C44.3444 28.8509 44.7912 29.1779 45.2124 29.5325L44.1357 30.7473C43.7713 30.4404 43.3897 30.1617 42.9923 29.9167C42.5985 29.6739 42.1804 29.466 41.7475 29.3018L42.345 27.8059ZM49.2554 26.7598C49.0843 26.2206 48.8494 25.7122 48.5752 25.2316L47.1358 26.0118C47.3676 26.4181 47.5549 26.8294 47.687 27.2503L47.6936 27.2712L47.7013 27.2918C47.9323 27.906 48.0597 28.5676 48.0885 29.2483L49.7341 29.1823C49.6993 28.3582 49.5454 27.538 49.2554 26.7598ZM46.7676 33.8648C46.5315 34.2121 46.2681 34.5336 45.9809 34.8225L45.9766 34.8269C45.4991 35.3144 44.9431 35.7265 44.3327 36.0546L45.1282 37.4602C45.8777 37.0573 46.568 36.5474 47.1659 35.9373C47.3431 35.759 47.5119 35.572 47.6719 35.3776C47.6808 35.3936 47.6895 35.4096 47.6983 35.4257L49.1517 34.6704C48.883 34.1793 48.5972 33.6981 48.2943 33.2279C48.0267 32.7791 47.734 32.3362 47.4168 31.9065L46.0798 32.8438C46.3246 33.1756 46.5541 33.5173 46.7676 33.8648ZM50.5592 37.7326C50.9551 38.7772 51.2821 39.8508 51.5389 40.9435L49.9335 41.3019C49.6922 40.2751 49.3852 39.2677 49.0142 38.2889L50.5592 37.7326ZM52.0952 44.2459C52.2101 45.3537 52.2553 46.4713 52.2295 47.5891L50.5829 47.553C50.6072 46.5013 50.5646 45.4497 50.4565 44.4073L52.0952 44.2459ZM51.9391 50.924C51.855 51.4761 51.753 52.026 51.6328 52.5726L51.632 52.5762C51.4948 53.1863 51.3341 53.7898 51.151 54.3856L49.5732 53.9249C49.7445 53.3679 49.8946 52.8042 50.0227 52.2347C50.1353 51.7223 50.231 51.2065 50.3099 50.6884L51.9391 50.924ZM50.8274 52.4043L50.8276 52.4044L50.8274 52.4043C44.7639 65.0252 45.199 64.5705 45.6178 64.1016L44.3134 65.4646C43.9815 63.4888 43.5721 63.9166 43.1483 64.33L44.3756 63.0476M49.7851 57.8725C49.244 59.0006 48.6206 60.0893 47.9237 61.1297L46.5446 60.2522C47.1998 59.274 47.7853 58.2513 48.2931 57.1926L49.7851 57.8725Z" fill="#C9D4E2"/>
<path d="M19.5176 2.3349C20.2662 3.0651 20.0341 4.19245 18.9147 4.82662C17.8298 5.58463 17.0104 6.07147 16.2963 5.46511C15.6284 4.77975 16.1025 3.7869 16.6691 2.63605C17.2936 1.20335 18.7229 1.68371 19.5176 2.3349Z" fill="#DAE2EB"/>
<path d="M15.8406 10.4476C16.7976 10.4561 17.9288 9.61909 17.6652 8.42556C17.3671 7.10819 17.2186 6.08333 16.1809 6.02998C15.2238 6.02147 15.0959 6.78799 14.4713 8.22068C14.0661 9.46121 14.7566 10.4732 15.8406 10.4476Z" fill="#DAE2EB"/>
<path d="M14.8905 5.30859C15.1335 4.71059 15.7799 4.33678 16.3564 4.44777C16.5639 4.45842 16.8522 4.51392 17.0135 4.6036C18.2353 5.0733 18.9721 6.00649 18.6828 6.68352C18.428 7.48441 17.2051 7.74722 16.1102 7.24334C15.7876 7.06398 15.6262 6.9743 15.3842 6.83978C14.8658 6.44688 14.6475 5.90659 14.8905 5.30859C14.9367 5.22957 14.8905 5.30859 14.8905 5.30859Z" fill="#989FB0"/>
<path d="M104.382 45.0234L97.2434 89.0397C96.6516 89.4002 96.0599 89.7246 95.4681 90.0491C94.4324 90.6258 93.3598 91.1305 92.2502 91.6352C90.8077 92.2841 89.3282 92.8609 87.8487 93.3656C86.85 93.69 85.8144 94.0145 84.7787 94.3029C83.3732 94.6634 81.8937 94.9878 80.4512 95.2402C79.4525 95.4204 78.4539 95.5646 77.4552 95.6728C76.0497 95.817 74.6812 95.9251 73.2387 95.9612C72.7209 95.9612 72.24 95.9972 71.7222 95.9972C71.2414 95.9972 70.7605 95.9972 70.2797 95.9612C68.9851 95.9251 67.7276 95.853 66.47 95.7088C65.4713 95.6007 64.4727 95.4565 63.474 95.3123C61.9945 95.0599 60.552 94.7715 59.1465 94.411C58.1109 94.1587 57.1122 93.8342 56.0765 93.5098C54.5601 93.0051 53.1176 92.4644 51.6751 91.8515C50.6024 91.3829 49.5298 90.8782 48.4572 90.3375C47.7544 89.977 47.0886 89.6165 46.4229 89.2199L39.0254 46.2852L47.4215 45.0595H104.382V45.0234Z" fill="url(#paint0_linear_2723_12902)"/>
<path d="M51.7483 91.8551C50.6756 91.3865 49.603 90.8818 48.5304 90.341L43.0932 50.6868C42.9823 49.8937 43.5371 49.1727 44.3508 49.0645C45.1645 48.9564 45.9043 49.4971 46.0152 50.2902L51.7483 91.8551Z" fill="black"/>
<path d="M59.1828 94.4147C58.1471 94.1624 57.1485 93.838 56.1128 93.5135L52.0072 50.6148C51.9332 49.8217 52.525 49.1368 53.3388 49.0647C54.1525 48.9926 54.8922 49.5694 54.9292 50.3625L59.1828 94.4147Z" fill="black"/>
<path d="M66.5067 95.7119C65.508 95.6037 64.5094 95.4595 63.5107 95.3153L61.2545 50.5781C61.2175 49.785 61.8463 49.1001 62.66 49.064C63.4737 49.028 64.1765 49.6408 64.2135 50.4339L66.5067 95.7119Z" fill="black"/>
<path d="M100.905 50.6859L95.4679 90.0517C94.4323 90.6285 93.3596 91.1332 92.25 91.6379L97.983 50.3254C98.094 49.5323 98.8337 48.9915 99.6475 49.0997C100.461 49.1718 101.016 49.8928 100.905 50.6859Z" fill="black"/>
<path d="M91.953 50.65L87.8844 93.3684C86.8857 93.6929 85.8501 94.0173 84.8145 94.3057L89.031 50.3976C89.105 49.6045 89.8078 49.0277 90.6215 49.0998C91.4352 49.1719 92.064 49.8569 91.953 50.65Z" fill="black"/>
<path d="M82.7434 50.5781L80.4872 95.2432C79.4885 95.4235 78.4899 95.5677 77.4912 95.6758L79.7844 50.4339C79.8214 49.6408 80.5242 49.028 81.3379 49.064C82.1516 49.1001 82.7804 49.785 82.7434 50.5781Z" fill="black"/>
<path d="M73.2754 50.5045V95.9627C72.7576 95.9627 72.2767 95.9987 71.7589 95.9987C71.2781 95.9987 70.7972 95.9987 70.3164 95.9627V50.5045C70.3164 49.7114 70.9822 49.0625 71.7959 49.0625C72.6466 49.0625 73.2754 49.7114 73.2754 50.5045Z" fill="black"/>
<path d="M103.486 48.9908L102.571 51.7344L111.189 54.4645L112.104 51.7209L103.486 48.9908Z" fill="#A9B3C4"/>
<path d="M40.0156 48.9965L31.3975 51.7266L32.3124 54.4701L40.9306 51.74L40.0156 48.9965Z" fill="#A9B3C4"/>
<path d="M51.7483 91.8551C50.6756 91.3865 49.603 90.8818 48.5304 90.341L43.0932 50.6868C42.9823 49.8937 43.5371 49.1727 44.3508 49.0645C45.1645 48.9564 45.9043 49.4971 46.0152 50.2902L51.7483 91.8551Z" fill="url(#paint1_linear_2723_12902)"/>
<path d="M59.1827 94.4146C58.1471 94.1622 57.1484 93.8378 56.1128 93.5133L52.0072 50.6146C51.9332 49.8215 52.525 49.1366 53.3387 49.0645C54.1524 48.9924 54.8922 49.5692 54.9292 50.3623L59.1827 94.4146Z" fill="url(#paint2_linear_2723_12902)"/>
<path d="M66.5062 95.7123C65.5075 95.6042 64.5089 95.46 63.5102 95.3158L61.254 50.5785C61.217 49.7855 61.8458 49.1005 62.6595 49.0645C63.4732 49.0284 64.176 49.6413 64.213 50.4343L66.5062 95.7123Z" fill="url(#paint3_linear_2723_12902)"/>
<path d="M73.2749 50.5065V95.9647C72.757 95.9647 72.2762 96.0007 71.7584 96.0007C71.2775 96.0007 70.7967 96.0008 70.3159 95.9647V50.5065C70.3159 49.7134 70.9816 49.0645 71.7954 49.0645C72.6461 49.0645 73.2749 49.7134 73.2749 50.5065Z" fill="url(#paint4_linear_2723_12902)"/>
<path d="M82.7436 50.5785L80.4874 95.2437C79.4887 95.4239 78.4901 95.5681 77.4914 95.6763L79.7846 50.4343C79.8216 49.6413 80.5244 49.0284 81.3381 49.0645C82.1518 49.1005 82.7806 49.7855 82.7436 50.5785Z" fill="url(#paint5_linear_2723_12902)"/>
<path d="M91.9535 50.6507L87.8849 93.3692C86.8862 93.6936 85.8506 94.0181 84.8149 94.3064L89.0315 50.3984C89.1055 49.6053 89.8082 49.0285 90.6219 49.1006C91.4357 49.1727 92.0645 49.8576 91.9535 50.6507Z" fill="url(#paint6_linear_2723_12902)"/>
<path d="M100.904 50.6867L95.4673 90.0526C94.4316 90.6294 93.359 91.1341 92.2494 91.6388L97.9824 50.3262C98.0934 49.5331 98.8331 48.9924 99.6469 49.1005C100.461 49.1726 101.015 49.8936 100.904 50.6867Z" fill="url(#paint7_linear_2723_12902)"/>
<g filter="url(#filter0_d_2723_12902)">
<path d="M104.529 46.2882H39.0613C38.3585 46.2882 37.8037 45.7473 37.8037 45.0621C37.8037 44.3769 38.3585 43.8359 39.0613 43.8359H104.529C105.232 43.8359 105.786 44.3769 105.786 45.0621C105.786 45.7112 105.232 46.2882 104.529 46.2882Z" fill="url(#paint8_linear_2723_12902)"/>
</g>
<path d="M112.21 26.3791C111.291 26.0877 110.953 25.0684 111.508 23.9261C112.063 22.7838 112.493 21.857 113.481 22.1443C114.331 22.4398 114.397 23.5448 114.472 24.7879C114.498 26.3805 112.991 26.6789 112.21 26.3791Z" fill="#DAE2EB"/>
<path d="M111.411 17.6919C110.534 18.0911 110.121 19.2941 110.874 20.2886C111.769 21.3438 112.302 22.1436 113.245 21.6712C114.122 21.272 113.869 20.5247 113.64 19.0137C113.362 17.8521 112.288 17.2927 111.411 17.6919Z" fill="#DAE2EB"/>
<path d="M113.678 23.1048C113.475 23.1863 113.271 23.2678 113.064 23.2803C111.967 23.4848 110.971 23.0592 110.86 22.3725C110.75 21.6857 111.611 21.0101 112.781 20.8705C113.053 20.7848 113.329 20.7683 113.541 20.8249C114.029 20.865 114.468 21.2546 114.501 21.8073C114.603 22.3559 114.222 22.9334 113.678 23.1048Z" fill="#989FB0"/>
<path fill-rule="evenodd" clip-rule="evenodd" d="M108.11 21.6581C108.686 21.5785 109.24 21.5238 109.768 21.4922L109.864 23.0946C109.38 23.1236 108.866 23.1741 108.329 23.2482L108.11 21.6581ZM101.727 23.4208C102.779 22.9765 103.833 22.6169 104.86 22.333L105.288 23.8801C104.325 24.1466 103.336 24.4838 102.351 24.8996L101.727 23.4208ZM96.0387 26.852C96.9072 26.1243 97.8223 25.4832 98.7604 24.9212L99.5858 26.2982C98.7145 26.8201 97.8692 27.4129 97.0702 28.0823L96.0387 26.852ZM91.7561 31.9803C92.3196 30.9758 92.9625 30.0567 93.666 29.2178L94.8967 30.2489C94.255 31.0142 93.6696 31.8513 93.1567 32.7655L91.7561 31.9803ZM89.5914 38.2892C89.7769 37.1405 90.0477 36.0602 90.3925 35.0453L91.9131 35.5616C91.5976 36.4899 91.3482 37.483 91.1767 38.5451L89.5914 38.2892ZM89.3311 43.2651C89.3048 42.6991 89.2963 42.1459 89.3051 41.6052L90.9107 41.6311C90.9025 42.1375 90.9104 42.6571 90.9353 43.1904L89.3311 43.2651Z" fill="#C9D4E2"/>
<defs>
<filter id="filter0_d_2723_12902" x="35.8037" y="43.8359" width="71.9824" height="6.45215" filterUnits="userSpaceOnUse" color-interpolation-filters="sRGB">
<feFlood flood-opacity="0" result="BackgroundImageFix"/>
<feColorMatrix in="SourceAlpha" type="matrix" values="0 0 0 0 0 0 0 0 0 0 0 0 0 0 0 0 0 0 127 0" result="hardAlpha"/>
<feOffset dy="2"/>
<feGaussianBlur stdDeviation="1"/>
<feColorMatrix type="matrix" values="0 0 0 0 0.397708 0 0 0 0 0.47749 0 0 0 0 0.575 0 0 0 0.15 0"/>
<feBlend mode="normal" in2="BackgroundImageFix" result="effect1_dropShadow_2723_12902"/>
<feBlend mode="normal" in="SourceGraphic" in2="effect1_dropShadow_2723_12902" result="shape"/>
</filter>
<linearGradient id="paint0_linear_2723_12902" x1="71.7089" y1="46.7942" x2="71.7089" y2="75.4053" gradientUnits="userSpaceOnUse">
<stop stop-color="#B0BACC"/>
<stop offset="1" stop-color="#969EAE"/>
</linearGradient>
<linearGradient id="paint1_linear_2723_12902" x1="78.9971" y1="78.2732" x2="80.9659" y2="50.3961" gradientUnits="userSpaceOnUse">
<stop offset="0.869792" stop-color="#7C869B"/>
<stop offset="1" stop-color="#747D8E"/>
</linearGradient>
<linearGradient id="paint2_linear_2723_12902" x1="78.9971" y1="78.2732" x2="80.9659" y2="50.3961" gradientUnits="userSpaceOnUse">
<stop offset="0.869792" stop-color="#7C869B"/>
<stop offset="1" stop-color="#747D8E"/>
</linearGradient>
<linearGradient id="paint3_linear_2723_12902" x1="78.9971" y1="78.2732" x2="80.9659" y2="50.3961" gradientUnits="userSpaceOnUse">
<stop offset="0.869792" stop-color="#7C869B"/>
<stop offset="1" stop-color="#747D8E"/>
</linearGradient>
<linearGradient id="paint4_linear_2723_12902" x1="78.9971" y1="78.2732" x2="80.9659" y2="50.3961" gradientUnits="userSpaceOnUse">
<stop offset="0.869792" stop-color="#7C869B"/>
<stop offset="1" stop-color="#747D8E"/>
</linearGradient>
<linearGradient id="paint5_linear_2723_12902" x1="78.9971" y1="78.2732" x2="80.9659" y2="50.3961" gradientUnits="userSpaceOnUse">
<stop offset="0.869792" stop-color="#7C869B"/>
<stop offset="1" stop-color="#747D8E"/>
</linearGradient>
<linearGradient id="paint6_linear_2723_12902" x1="78.9971" y1="78.2732" x2="80.9659" y2="50.3961" gradientUnits="userSpaceOnUse">
<stop offset="0.869792" stop-color="#7C869B"/>
<stop offset="1" stop-color="#747D8E"/>
</linearGradient>
<linearGradient id="paint7_linear_2723_12902" x1="78.9971" y1="78.2732" x2="80.9659" y2="50.3961" gradientUnits="userSpaceOnUse">
<stop offset="0.869792" stop-color="#7C869B"/>
<stop offset="1" stop-color="#747D8E"/>
</linearGradient>
<linearGradient id="paint8_linear_2723_12902" x1="71.7729" y1="43.7792" x2="71.7729" y2="46.3146" gradientUnits="userSpaceOnUse">
<stop stop-color="#CED8EA"/>
<stop offset="0.9964" stop-color="#ADB7C9"/>
</linearGradient>
</defs>
</svg>
