<svg width="97" height="78" viewBox="0 0 97 78" fill="none" xmlns="http://www.w3.org/2000/svg">
<path d="M48.9329 56C62.2807 56 73.1568 45.2391 73.1568 32.0223C73.1118 18.7609 62.2807 8 48.9329 8C35.5401 8 24.709 18.7609 24.709 31.9777C24.709 45.2391 35.5401 56 48.9329 56Z" fill="#EAEEF9"/>
<g filter="url(#filter0_d_2990_20667)">
<path d="M74.7756 35.0588C74.7756 40.1937 70.5959 44.3462 65.3826 44.3462C65.2928 44.3462 64.5287 44.3462 58.9109 44.3462C55.001 44.3462 48.754 44.3462 38.7768 44.3462H34.0129C27.7659 44.4802 22.7773 39.5239 22.7773 33.5406C22.7773 27.5127 27.8109 22.5118 34.1477 22.8244C39.5858 5.94623 64.4838 8.31274 66.5961 25.7713C71.2701 26.3518 74.7756 30.2811 74.7756 35.0588Z" fill="url(#paint0_linear_2990_20667)"/>
</g>
<path d="M65.3812 44.3464C70.5496 44.3464 74.7742 40.1938 74.7742 35.0589C74.7742 29.924 70.5496 25.7715 65.3812 25.7715C60.2129 25.7715 55.9883 29.924 55.9883 35.0589C55.9883 40.1938 60.2129 44.3464 65.3812 44.3464Z" fill="url(#paint1_linear_2990_20667)"/>
<path d="M50.0564 44.4358C59.2696 44.4358 66.775 37.0238 66.775 27.8703C66.775 18.7168 59.2696 11.3047 50.0564 11.3047C40.8433 11.3047 33.3379 18.7168 33.3379 27.8703C33.3379 37.0238 40.7983 44.4358 50.0564 44.4358Z" fill="url(#paint2_linear_2990_20667)"/>
<path d="M42.9134 34.256C44.6661 33.1398 46.7335 32.5146 48.9356 32.5146C54.9579 32.5146 59.8566 37.337 59.8566 43.3202C59.8566 49.3035 54.9579 54.1258 48.9356 54.1258C42.9134 54.1258 38.0147 49.3035 38.0147 43.3202C37.9248 39.5249 39.9022 36.2207 42.9134 34.256Z" fill="url(#paint3_linear_2990_20667)"/>
<path d="M49.6741 39.1671L52.7301 42.2033C53.0897 42.5605 53.0897 43.1857 52.7301 43.5429C52.3706 43.9001 51.7414 43.9001 51.3369 43.5429L49.9437 42.2033V47.115C49.9437 47.6508 49.4943 48.0973 48.955 48.0973C48.4157 48.0973 47.9663 47.6508 47.9663 47.115V42.2033L46.573 43.5429C46.2135 43.9001 45.5843 43.9001 45.1798 43.5429C44.9551 43.3196 44.8652 43.0964 44.8652 42.8731C44.8652 42.6498 44.9551 42.3373 45.1798 42.2033L48.2359 39.1671C48.3707 39.0331 48.6853 38.8545 48.91 38.8545C49.1348 38.8545 49.5392 38.9438 49.6741 39.1671Z" fill="white"/>
<path d="M73.7411 23.6272C74.7587 23.6272 75.5837 22.8076 75.5837 21.7965C75.5837 20.7855 74.7587 19.9658 73.7411 19.9658C72.7234 19.9658 71.8984 20.7855 71.8984 21.7965C71.8984 22.8076 72.7234 23.6272 73.7411 23.6272Z" fill="#EAEEF9"/>
<path d="M76.4381 16.4839C77.1331 16.4839 77.6965 15.9241 77.6965 15.2336C77.6965 14.5431 77.1331 13.9834 76.4381 13.9834C75.7431 13.9834 75.1797 14.5431 75.1797 15.2336C75.1797 15.9241 75.7431 16.4839 76.4381 16.4839Z" fill="#EAEEF9"/>
<path d="M25.4732 20.5913C26.1682 20.5913 26.7316 20.0315 26.7316 19.3411C26.7316 18.6506 26.1682 18.0908 25.4732 18.0908C24.7782 18.0908 24.2148 18.6506 24.2148 19.3411C24.2148 20.0315 24.7782 20.5913 25.4732 20.5913Z" fill="#EAEEF9"/>
<path d="M22.6417 48.0968C23.9324 48.0968 24.9787 47.0573 24.9787 45.775C24.9787 44.4927 23.9324 43.4531 22.6417 43.4531C21.351 43.4531 20.3047 44.4927 20.3047 45.775C20.3047 47.0573 21.351 48.0968 22.6417 48.0968Z" fill="#EAEEF9"/>
<defs>
<filter id="filter0_d_2990_20667" x="0.777344" y="0.344727" width="95.998" height="77.0039" filterUnits="userSpaceOnUse" color-interpolation-filters="sRGB">
<feFlood flood-opacity="0" result="BackgroundImageFix"/>
<feColorMatrix in="SourceAlpha" type="matrix" values="0 0 0 0 0 0 0 0 0 0 0 0 0 0 0 0 0 0 127 0" result="hardAlpha"/>
<feOffset dy="11"/>
<feGaussianBlur stdDeviation="11"/>
<feColorMatrix type="matrix" values="0 0 0 0 0.397708 0 0 0 0 0.47749 0 0 0 0 0.575 0 0 0 0.27 0"/>
<feBlend mode="normal" in2="BackgroundImageFix" result="effect1_dropShadow_2990_20667"/>
<feBlend mode="normal" in="SourceGraphic" in2="effect1_dropShadow_2990_20667" result="shape"/>
</filter>
<linearGradient id="paint0_linear_2990_20667" x1="48.7765" y1="24.9833" x2="48.7597" y2="44.7047" gradientUnits="userSpaceOnUse">
<stop stop-color="white"/>
<stop offset="0.9964" stop-color="#ECF0F5"/>
</linearGradient>
<linearGradient id="paint1_linear_2990_20667" x1="54.9887" y1="23.7719" x2="63.2566" y2="32.8734" gradientUnits="userSpaceOnUse">
<stop stop-color="#BCCBE1"/>
<stop offset="0.9942" stop-color="white" stop-opacity="0"/>
</linearGradient>
<linearGradient id="paint2_linear_2990_20667" x1="31.7724" y1="20.2688" x2="44.8733" y2="25.429" gradientUnits="userSpaceOnUse">
<stop stop-color="#E2E8F0"/>
<stop offset="0.9942" stop-color="white" stop-opacity="0"/>
</linearGradient>
<linearGradient id="paint3_linear_2990_20667" x1="48.9359" y1="33.2654" x2="48.9359" y2="45.3955" gradientUnits="userSpaceOnUse">
<stop stop-color="#B0BACC"/>
<stop offset="1" stop-color="#969EAE"/>
</linearGradient>
</defs>
</svg>
