<svg width="25" height="24" viewBox="0 0 25 24" fill="none" xmlns="http://www.w3.org/2000/svg">
<path opacity="0.4" d="M16.2459 11.9999C16.2459 13.9799 14.6459 15.5799 12.6659 15.5799C10.6859 15.5799 9.08594 13.9799 9.08594 11.9999C9.08594 10.0199 10.6859 8.41992 12.6659 8.41992C14.6459 8.41992 16.2459 10.0199 16.2459 11.9999Z" stroke="white" strokeWidth="1.5" strokeLinecap="round" strokeLinejoin="round"/>
<path d="M12.6659 20.2697C16.1959 20.2697 19.4859 18.1897 21.7759 14.5897C22.6759 13.1797 22.6759 10.8097 21.7759 9.39973C19.4859 5.79973 16.1959 3.71973 12.6659 3.71973C9.13586 3.71973 5.84586 5.79973 3.55586 9.39973C2.65586 10.8097 2.65586 13.1797 3.55586 14.5897C5.84586 18.1897 9.13586 20.2697 12.6659 20.2697Z" stroke="white" strokeWidth="1.5" strokeLinecap="round" strokeLinejoin="round"/>
</svg>
