<svg width="16" height="17" viewBox="0 0 16 17" fill="none" xmlns="http://www.w3.org/2000/svg">
<path d="M14.4408 7.46033L13.7874 10.247C13.2274 12.6537 12.1208 13.627 10.0408 13.427C9.70744 13.4003 9.34744 13.3403 8.96077 13.247L7.84077 12.9803C5.06077 12.3203 4.20077 10.947 4.8541 8.16033L5.50744 5.367C5.64077 4.80033 5.80077 4.307 6.00077 3.90033C6.78077 2.287 8.10744 1.85366 10.3341 2.38033L11.4474 2.64033C14.2408 3.29366 15.0941 4.67366 14.4408 7.46033Z" stroke="#8E8EA9" strokeLinecap="round" strokeLinejoin="round"/>
<path opacity="0.4" d="M10.0402 13.4271C9.62689 13.7071 9.10689 13.9404 8.47356 14.1471L7.42023 14.4937C4.77356 15.3471 3.38023 14.6337 2.52023 11.9871L1.66689 9.35372C0.813561 6.70706 1.52023 5.30706 4.16689 4.45372L5.22023 4.10706C5.49356 4.02039 5.75356 3.94706 6.00023 3.90039C5.80023 4.30706 5.64023 4.80039 5.50689 5.36706L4.85356 8.16039C4.20023 10.9471 5.06023 12.3204 7.84023 12.9804L8.96023 13.2471C9.34689 13.3404 9.70689 13.4004 10.0402 13.4271Z" stroke="#8E8EA9" strokeLinecap="round" strokeLinejoin="round"/>
</svg>
