<svg width="16" height="17" viewBox="0 0 16 17" fill="none" xmlns="http://www.w3.org/2000/svg">
<path d="M8.35398 14.1134H4.14065C2.03398 14.1134 1.33398 12.7134 1.33398 11.3067V5.69339C1.33398 3.58672 2.03398 2.88672 4.14065 2.88672H8.35398C10.4607 2.88672 11.1607 3.58672 11.1607 5.69339V11.3067C11.1607 13.4134 10.454 14.1134 8.35398 14.1134Z" stroke="#8E8EA9" strokeLinecap="round" strokeLinejoin="round"/>
<path opacity="0.4" d="M13.0135 11.9001L11.1602 10.6001V6.39342L13.0135 5.09342C13.9202 4.46009 14.6668 4.84675 14.6668 5.96009V11.0401C14.6668 12.1534 13.9202 12.5401 13.0135 11.9001Z" stroke="#8E8EA9" strokeLinecap="round" strokeLinejoin="round"/>
<path opacity="0.4" d="M7.66602 7.83301C8.2183 7.83301 8.66602 7.38529 8.66602 6.83301C8.66602 6.28072 8.2183 5.83301 7.66602 5.83301C7.11373 5.83301 6.66602 6.28072 6.66602 6.83301C6.66602 7.38529 7.11373 7.83301 7.66602 7.83301Z" stroke="#8E8EA9" strokeLinecap="round" strokeLinejoin="round"/>
</svg>
