<svg width="51" height="50" viewBox="0 0 51 50" fill="none" xmlns="http://www.w3.org/2000/svg">
<circle cx="25.1992" cy="25" r="25" fill="#FFEEEA"/>
<path d="M30.1992 31.4297H26.1992L21.7492 34.3897C21.0892 34.8297 20.1992 34.3598 20.1992 33.5598V31.4297C17.1992 31.4297 15.1992 29.4297 15.1992 26.4297V20.4297C15.1992 17.4297 17.1992 15.4297 20.1992 15.4297H30.1992C33.1992 15.4297 35.1992 17.4297 35.1992 20.4297V26.4297C35.1992 29.4297 33.1992 31.4297 30.1992 31.4297Z" stroke="#FF5630" strokeWidth="1.5" strokeMiterlimit="10" strokeLinecap="round" strokeLinejoin="round"/>
<path opacity="0.4" d="M25.199 24.3604V24.1504C25.199 23.4704 25.6191 23.1104 26.0391 22.8204C26.4491 22.5404 26.859 22.1804 26.859 21.5204C26.859 20.6004 26.119 19.8604 25.199 19.8604C24.279 19.8604 23.5391 20.6004 23.5391 21.5204" stroke="#FF5630" strokeWidth="1.5" strokeLinecap="round" strokeLinejoin="round"/>
<path opacity="0.4" d="M25.1947 26.75H25.2037" stroke="#FF5630" strokeWidth="1.5" strokeLinecap="round" strokeLinejoin="round"/>
</svg>
