<svg width="51" height="51" viewBox="0 0 51 51" fill="none" xmlns="http://www.w3.org/2000/svg">
<circle cx="25.4004" cy="25.5" r="25" fill="#FFF7E5"/>
<path d="M31.3804 24.29V28.29C31.3804 28.55 31.3704 28.8 31.3404 29.04C31.1104 31.74 29.5204 33.08 26.5904 33.08H26.1904C25.9404 33.08 25.7004 33.2 25.5504 33.4L24.3504 35C23.8204 35.71 22.9604 35.71 22.4304 35L21.2304 33.4C21.1004 33.23 20.8104 33.08 20.5904 33.08H20.1904C17.0004 33.08 15.4004 32.29 15.4004 28.29V24.29C15.4004 21.36 16.7504 19.77 19.4404 19.54C19.6804 19.51 19.9304 19.5 20.1904 19.5H26.5904C29.7804 19.5 31.3804 21.1 31.3804 24.29Z" stroke="#FB8E0B" strokeWidth="1.5" strokeMiterlimit="10" strokeLinecap="round" strokeLinejoin="round"/>
<path opacity="0.4" d="M35.3795 20.29V24.29C35.3795 27.23 34.0294 28.81 31.3394 29.04C31.3694 28.8 31.3795 28.55 31.3795 28.29V24.29C31.3795 21.1 29.7794 19.5 26.5894 19.5H20.1895C19.9295 19.5 19.6795 19.51 19.4395 19.54C19.6695 16.85 21.2595 15.5 24.1895 15.5H30.5894C33.7794 15.5 35.3795 17.1 35.3795 20.29Z" stroke="#FB8E0B" strokeWidth="1.5" strokeMiterlimit="10" strokeLinecap="round" strokeLinejoin="round"/>
<path opacity="0.4" d="M26.8959 26.75H26.9049" stroke="#FB8E0B" strokeWidth="2" strokeLinecap="round" strokeLinejoin="round"/>
<path opacity="0.4" d="M23.3959 26.75H23.4049" stroke="#FB8E0B" strokeWidth="2" strokeLinecap="round" strokeLinejoin="round"/>
<path opacity="0.4" d="M19.8959 26.75H19.9049" stroke="#FB8E0B" strokeWidth="2" strokeLinecap="round" strokeLinejoin="round"/>
</svg>
