<svg width="50" height="50" viewBox="0 0 50 50" fill="none" xmlns="http://www.w3.org/2000/svg">
<circle cx="25" cy="25" r="25" fill="#EBF2FF"/>
<path d="M22.1605 23.87C22.0605 23.86 21.9405 23.86 21.8305 23.87C19.4505 23.79 17.5605 21.84 17.5605 19.44C17.5605 16.99 19.5405 15 22.0005 15C24.4505 15 26.4405 16.99 26.4405 19.44C26.4305 21.84 24.5405 23.79 22.1605 23.87Z" stroke="#377DFF" strokeWidth="1.5" strokeLinecap="round" strokeLinejoin="round"/>
<path opacity="0.4" d="M29.4093 17C31.3493 17 32.9093 18.57 32.9093 20.5C32.9093 22.39 31.4093 23.93 29.5393 24C29.4593 23.99 29.3693 23.99 29.2793 24" stroke="#377DFF" strokeWidth="1.5" strokeLinecap="round" strokeLinejoin="round"/>
<path d="M17.1607 27.56C14.7407 29.18 14.7407 31.82 17.1607 33.43C19.9107 35.27 24.4207 35.27 27.1707 33.43C29.5907 31.81 29.5907 29.17 27.1707 27.56C24.4307 25.73 19.9207 25.73 17.1607 27.56Z" stroke="#377DFF" strokeWidth="1.5" strokeLinecap="round" strokeLinejoin="round"/>
<path opacity="0.4" d="M31.3398 33C32.0598 32.85 32.7398 32.56 33.2998 32.13C34.8598 30.96 34.8598 29.03 33.2998 27.86C32.7498 27.44 32.0798 27.16 31.3698 27" stroke="#377DFF" strokeWidth="1.5" strokeLinecap="round" strokeLinejoin="round"/>
</svg>
