<svg width="51" height="50" viewBox="0 0 51 50" fill="none" xmlns="http://www.w3.org/2000/svg">
<circle cx="25.5996" cy="25" r="25" fill="#EBFAF3"/>
<path d="M35.2598 23.4395L34.2798 27.6195C33.4398 31.2295 31.7798 32.6895 28.6598 32.3895C28.1598 32.3495 27.6198 32.2595 27.0398 32.1195L25.3598 31.7195C21.1898 30.7295 19.8998 28.6695 20.8798 24.4895L21.8598 20.2995C22.0598 19.4495 22.2998 18.7095 22.5998 18.0995C23.7698 15.6795 25.7598 15.0295 29.0998 15.8195L30.7698 16.2095C34.9598 17.1895 36.2398 19.2595 35.2598 23.4395Z" stroke="#00CC73" strokeWidth="1.5" strokeLinecap="round" strokeLinejoin="round"/>
<path opacity="0.4" d="M28.66 32.3896C28.04 32.8096 27.26 33.1596 26.31 33.4696L24.73 33.9896C20.76 35.2696 18.67 34.1996 17.38 30.2296L16.1 26.2796C14.82 22.3096 15.88 20.2096 19.85 18.9296L21.43 18.4096C21.84 18.2796 22.23 18.1696 22.6 18.0996C22.3 18.7096 22.06 19.4496 21.86 20.2996L20.88 24.4896C19.9 28.6696 21.19 30.7296 25.36 31.7196L27.04 32.1196C27.62 32.2596 28.16 32.3496 28.66 32.3896Z" stroke="#00CC73" strokeWidth="1.5" strokeLinecap="round" strokeLinejoin="round"/>
</svg>
